<svg width="12" height="13" viewBox="0 0 12 13" fill="none" xmlns="http://www.w3.org/2000/svg">
<path d="M1.28334 12H10.05L9.00001 4.66663H2.33334L1.28334 12ZM5.66667 3.66663C5.95556 3.66663 6.19445 3.5694 6.38334 3.37496C6.57223 3.18051 6.66667 2.9444 6.66667 2.66663C6.66667 2.37774 6.57223 2.13885 6.38334 1.94996C6.19445 1.76107 5.95556 1.66663 5.66667 1.66663C5.3889 1.66663 5.15279 1.76107 4.95834 1.94996C4.7639 2.13885 4.66667 2.37774 4.66667 2.66663C4.66667 2.9444 4.7639 3.18051 4.95834 3.37496C5.15279 3.5694 5.3889 3.66663 5.66667 3.66663ZM7.40001 3.66663H9.00001C9.25556 3.66663 9.47779 3.74718 9.66667 3.90829C9.85556 4.0694 9.96667 4.27774 10 4.53329L11.0333 11.8666C11.0778 12.1666 11.0028 12.4305 10.8083 12.6583C10.6139 12.8861 10.3611 13 10.05 13H1.28334C0.972231 13 0.719453 12.8861 0.525008 12.6583C0.330564 12.4305 0.255564 12.1666 0.300008 11.8666L1.33334 4.53329C1.36667 4.27774 1.47779 4.0694 1.66667 3.90829C1.85556 3.74718 2.07779 3.66663 2.33334 3.66663H3.93334C3.84445 3.51107 3.77779 3.35274 3.73334 3.19163C3.6889 3.03051 3.66667 2.85551 3.66667 2.66663C3.66667 2.11107 3.86112 1.63885 4.25001 1.24996C4.6389 0.86107 5.11112 0.666626 5.66667 0.666626C6.22223 0.666626 6.69445 0.86107 7.08334 1.24996C7.47223 1.63885 7.66667 2.11107 7.66667 2.66663C7.66667 2.85551 7.64445 3.03051 7.60001 3.19163C7.55556 3.35274 7.4889 3.51107 7.40001 3.66663ZM1.28334 12H10.05H1.28334Z" fill="#1D1D1D"/>
</svg>
